<?xml version="1.0" standalone="no"?>
<!DOCTYPE svg PUBLIC "-//W3C//DTD SVG 20010904//EN"
 "http://www.w3.org/TR/2001/REC-SVG-20010904/DTD/svg10.dtd">
<svg version="1.0" xmlns="http://www.w3.org/2000/svg"
 width="688.000000pt" height="688.000000pt" viewBox="0 0 688.000000 688.000000"
 preserveAspectRatio="xMidYMid meet">
<metadata>
Created by potrace 1.14, written by Peter Selinger 2001-2017
</metadata>
<g transform="translate(0.000000,688.000000) scale(0.100000,-0.100000)"
fill="#000000" stroke="none">
<path d="M3170 6790 c-429 -40 -811 -144 -1178 -320 -1005 -483 -1699 -1415
-1871 -2515 -165 -1055 187 -2132 944 -2890 956 -956 2399 -1246 3647 -734
763 313 1370 881 1738 1624 164 331 262 646 314 1005 152 1049 -200 2105 -949
2855 -542 541 -1230 872 -2010 965 -121 15 -517 21 -635 10z m810 -1459 c293
-52 560 -164 812 -341 90 -63 343 -303 385 -365 l21 -30 -362 -184 -361 -184
-65 62 c-161 155 -396 269 -619 301 -122 18 -312 8 -433 -24 -189 -49 -353
-142 -507 -291 -207 -199 -328 -454 -350 -737 -29 -357 95 -686 350 -933 218
-211 448 -311 739 -322 312 -12 595 94 827 311 l58 54 358 -180 c217 -110 357
-186 355 -194 -6 -25 -144 -176 -230 -251 -362 -316 -775 -482 -1243 -500
-574 -22 -1102 188 -1497 595 -279 288 -446 615 -515 1012 -26 148 -24 489 5
640 50 266 144 495 297 725 190 285 434 498 750 655 220 109 426 172 650 199
129 16 442 6 575 -18z"/>
</g>
</svg>
