<?xml version="1.0" standalone="no"?>
<!DOCTYPE svg PUBLIC "-//W3C//DTD SVG 20010904//EN"
 "http://www.w3.org/TR/2001/REC-SVG-20010904/DTD/svg10.dtd">
<svg version="1.0" xmlns="http://www.w3.org/2000/svg"
 width="700.000000pt" height="700.000000pt" viewBox="0 0 700.000000 700.000000"
 preserveAspectRatio="xMidYMid meet">
<metadata>
Created by potrace 1.14, written by Peter Selinger 2001-2017
</metadata>
<g transform="translate(0.000000,700.000000) scale(0.100000,-0.100000)"
fill="#000000" stroke="none">
<path d="M3278 6995 c-1 -1 -42 -5 -89 -9 -47 -4 -95 -8 -106 -10 -11 -3 -44
-7 -74 -11 -312 -37 -711 -158 -1024 -311 -180 -87 -448 -247 -555 -331 -8 -6
-51 -40 -95 -74 -340 -264 -650 -624 -875 -1014 -47 -81 -170 -327 -170 -339
0 -3 -11 -29 -24 -58 -43 -96 -112 -298 -142 -413 -4 -16 -8 -34 -10 -40 -5
-16 -25 -98 -30 -120 -39 -194 -47 -242 -60 -350 -26 -230 -26 -667 1 -826 2
-13 6 -46 9 -74 9 -78 22 -152 51 -285 21 -96 91 -339 114 -395 5 -11 25 -65
46 -120 64 -170 213 -461 314 -615 214 -324 467 -601 775 -848 89 -72 367
-262 382 -262 4 0 15 -6 23 -14 26 -22 259 -139 387 -194 148 -64 396 -149
484 -167 8 -2 53 -12 100 -24 109 -26 200 -43 299 -57 25 -3 57 -8 71 -10 162
-25 684 -25 841 1 13 2 47 7 74 10 72 10 86 12 120 19 17 3 44 8 60 11 517 98
1046 340 1479 677 158 124 387 341 491 468 21 25 41 47 44 50 17 12 180 233
238 323 320 491 506 1030 560 1622 15 162 8 563 -12 705 -3 19 -7 55 -10 80
-3 25 -7 52 -10 60 -2 8 -7 35 -10 60 -7 55 -53 265 -64 300 -5 14 -17 52 -26
85 -130 458 -408 960 -734 1324 -101 112 -267 274 -366 356 -33 28 -62 53 -65
56 -8 9 -190 143 -239 175 -403 265 -798 430 -1260 525 -53 11 -112 22 -131
24 -19 3 -46 7 -60 10 -13 2 -52 7 -86 11 -33 3 -74 8 -90 10 -33 5 -540 14
-546 9z"/>
</g>
</svg>
