<svg xmlns="http://www.w3.org/2000/svg" width="50" height="50" fill="none"><g clip-path="url(#a)"><path fill="#F95555" d="M24.998 0c13.807 0 24.997 11.197 24.997 25s-11.19 25-24.997 25S0 38.803 0 25 11.19 0 24.998 0Z"/><path fill="#fff" d="M36.997 10.425c.881 0 1.321.453 1.321 1.357v5.053c0 .426-.103.771-.336 1.01-.208.24-.544.347-.985.347H25.496c-.415 0-.752.106-.985.345-.233.213-.336.559-.336 1.01v21.118c0 .425-.104.771-.337 1.01-.207.24-.544.346-.985.346h-5.18c-.415 0-.751-.106-.985-.346-.233-.239-.336-.558-.336-1.01V11.782c0-.452.13-.798.336-1.01.234-.213.544-.347.985-.347h19.324Z"/><path fill="#fff" d="M27.178 27.606c-3.29-.266-19.273 2.394-20.49-.505-1.995-4.84 14.817-2.101 17.07-2.048 1.14.027 2.539.266 3.342.027.57-.16.958-1.117 1.58-1.49 1.425-.85 3.705-.372 5.673-.212 1.347.106 2.642.266 4.041.345-1.994.293-4.144.585-6.269.851-.259.027-.647-.053-.803.213 2.15.346 4.56.426 6.917.612-2.28.346-4.87.425-7.124.878.156.265.544.186.803.212 2.02.16 4.223.32 6.32.453-2.201.372-4.74.425-6.89.877.052.346.544.24.752.266 1.994.24 4.248.532 6.32.718-2.28.186-5.103.718-7.486.878-1.788.133-2.85-.958-3.756-2.075Z"/><path fill="#fff" d="M21.506 27.872c2.538-.212 4.688-.399 5.699-.319h.026c.44.559.932 1.117 1.528 1.516.596.4 1.321.638 2.228.585 1.295-.08 2.746-.266 4.144-.479 1.01-.133 1.995-.265 2.928-.372-.907-.08-1.84-.186-2.772-.292-1.088-.133-2.15-.266-3.135-.373h-.155c-.233 0-.57 0-.622-.292v-.027h.026c1.218-.24 2.539-.372 3.86-.505.906-.08 1.813-.186 2.668-.293-1.58-.106-3.238-.213-4.792-.346l-1.166-.08h-.181c-.233 0-.518 0-.648-.239l-.026-.053h.052c1.27-.266 2.642-.399 4.015-.505.933-.08 1.865-.186 2.746-.293l-1.399-.08c-1.761-.106-3.549-.212-5.155-.478h-.052l.026-.053c.13-.24.389-.24.622-.24h.207l1.71-.24c1.425-.185 2.85-.372 4.196-.584a73.587 73.587 0 0 1-2.409-.213c-.414-.027-.829-.08-1.269-.106-.337-.027-.7-.08-1.062-.107-1.684-.186-3.445-.372-4.585.32-.285.159-.518.451-.751.744-.26.346-.518.665-.855.745-.57.16-1.399.106-2.254.026-.388-.026-.751-.053-1.114-.053-.388 0-1.191-.106-2.28-.213-3.833-.398-10.983-1.17-13.78.054-.985.425-1.4 1.09-.985 2.127.83 1.915 8.885 1.224 14.766.718m5.673-.239c-.985-.08-3.135.106-5.673.32-5.906.504-13.989 1.196-14.843-.852-.44-1.064 0-1.782 1.01-2.234 2.823-1.25 9.973-.479 13.807-.08 1.062.107 1.865.213 2.253.213.363 0 .726.027 1.114.053.83.053 1.684.133 2.228-.026.285-.08.544-.4.803-.719.233-.292.466-.585.777-.77 1.166-.719 2.927-.506 4.637-.32.363.053.725.08 1.062.107.415.026.83.08 1.27.106.906.08 1.813.186 2.771.24l.363.026-.363.053c-1.45.213-3.005.425-4.559.638l-1.71.24h-.207c-.181 0-.388 0-.518.16 1.58.239 3.342.372 5.077.478.596.027 1.192.08 1.762.106l.337.027-.337.053c-.985.16-2.047.266-3.109.346-1.347.133-2.694.266-3.963.505.13.133.363.133.57.133h.181l1.166.08c1.684.133 3.445.266 5.155.346l.362.026-.362.053c-.959.16-1.995.266-3.031.373-1.295.133-2.616.266-3.808.505.052.213.337.186.518.186h.181c1.01.133 2.073.266 3.135.373 1.062.133 2.15.239 3.186.345v.08c-1.036.08-2.176.24-3.341.4-1.4.185-2.85.398-4.145.478-.933.053-1.658-.186-2.254-.585-.57-.346-1.062-.904-1.502-1.463Z"/></g><defs><clipPath id="a"><path fill="#fff" d="M0 0h50v50H0z"/></clipPath></defs></svg>