<svg viewBox="0 0 32 32" fill="none" xmlns="http://www.w3.org/2000/svg">
<path d="M16 13.1807C14.4221 13.1807 13.1372 14.4648 13.1372 16.0428C13.1372 17.6214 14.4221 18.9059 16 18.9059C17.5786 18.9059 18.8625 17.6214 18.8625 16.0428C18.8625 14.4652 17.5783 13.1807 16 13.1807Z" fill="#151618"/>
<path fill-rule="evenodd" clip-rule="evenodd" d="M20.7687 8.51355H11.2313C9.70894 8.51355 8.47041 9.75208 8.47041 11.2744V20.8119C8.47041 22.3342 9.70894 23.5731 11.2313 23.5731H20.7687C22.291 23.5731 23.5299 22.3345 23.5299 20.8119V11.2744C23.5299 9.75208 22.2914 8.51355 20.7687 8.51355ZM16 21.0008C13.2666 21.0008 11.0427 18.7769 11.0427 16.0431C11.0427 13.3097 13.2666 11.0858 16 11.0858C18.7337 11.0858 20.9577 13.3097 20.9577 16.0431C20.9577 18.7765 18.7334 21.0008 16 21.0008ZM21.117 12.1108C20.47 12.1108 19.9438 11.5846 19.9438 10.9378C19.9438 10.2911 20.47 9.76491 21.117 9.76491C21.7638 9.76491 22.29 10.2911 22.29 10.9378C22.29 11.5846 21.7638 12.1108 21.117 12.1108Z" fill="#151618"/>
<path fill-rule="evenodd" clip-rule="evenodd" d="M0 16C0 7.1638 7.1638 0 16 0C24.8362 0 32 7.1638 32 16C32 24.8362 24.8362 32 16 32C7.1638 32 0 24.8362 0 16ZM20.7687 25.6676C23.4465 25.6676 25.6245 23.4896 25.6245 20.8119V11.2744C25.6245 8.59698 23.4465 6.41868 20.7687 6.41868H11.2313C8.55384 6.41868 6.37554 8.59698 6.37554 11.2744V20.8119C6.37554 23.4896 8.55384 25.6676 11.2313 25.6676H20.7687Z" fill="#151618"/>
</svg>
