<svg viewBox="0 0 32 32" fill="none" xmlns="http://www.w3.org/2000/svg">
<path fill-rule="evenodd" clip-rule="evenodd" d="M32 16C32 24.8365 24.8365 32 16 32C7.16345 32 0 24.8365 0 16C0 7.16345 7.16345 0 16 0C24.8365 0 32 7.16345 32 16ZM16.6514 23.0175H15.3956C15.3956 23.0175 12.6248 23.1843 10.1848 20.6439C7.52368 17.873 5.17352 12.3746 5.17352 12.3746C5.17352 12.3746 5.03802 12.0141 5.18524 11.8398C5.35065 11.6439 5.80127 11.6313 5.80127 11.6313L8.80316 11.6117C8.80316 11.6117 9.08612 11.659 9.28857 11.8076C9.45544 11.9302 9.54901 12.1595 9.54901 12.1595C9.54901 12.1595 10.0342 13.3866 10.6768 14.4966C11.9308 16.6637 12.515 17.1377 12.9408 16.9056C13.5611 16.567 13.3752 13.842 13.3752 13.842C13.3752 13.842 13.3866 12.8529 13.0629 12.4125C12.8121 12.0712 12.3393 11.9716 12.1305 11.9437C11.9616 11.9211 12.2389 11.529 12.5983 11.353C13.1384 11.0883 14.0925 11.0732 15.2197 11.0849C16.0978 11.0938 16.3505 11.1485 16.6939 11.2315C17.4906 11.4238 17.4658 12.0402 17.4122 13.3702C17.3962 13.7676 17.3776 14.2287 17.3776 14.7613C17.3776 14.8811 17.3741 15.0088 17.3705 15.1401C17.3519 15.8214 17.3306 16.6013 17.7789 16.891C18.0088 17.0393 18.5712 16.9133 19.9779 14.5246C20.6447 13.3926 21.1447 12.0615 21.1447 12.0615C21.1447 12.0615 21.254 11.8242 21.4236 11.7224C21.5974 11.6185 21.8315 11.6505 21.8315 11.6505L24.9905 11.6308C24.9905 11.6308 25.9398 11.5176 26.0935 11.9459C26.2546 12.3958 25.7386 13.4459 24.4481 15.166C23.2224 16.7996 22.6268 17.4 22.6829 17.9319C22.7237 18.3196 23.1108 18.6708 23.8525 19.3593C25.4076 20.8027 25.822 21.5606 25.9205 21.7406C25.9284 21.7551 25.9343 21.7659 25.9386 21.773C26.6345 22.927 25.1668 23.0175 25.1668 23.0175L22.3611 23.0565C22.3611 23.0565 21.7582 23.176 20.9647 22.631C20.5497 22.3462 20.1441 21.8811 19.7576 21.438C19.1667 20.7606 18.6206 20.1345 18.1545 20.2822C17.3724 20.5303 17.397 22.2154 17.397 22.2154C17.397 22.2154 17.4027 22.5753 17.2244 22.767C17.0308 22.9758 16.6514 23.0175 16.6514 23.0175Z" fill="#151618"/>
</svg>
