<svg viewBox="0 0 32 35" fill="none" xmlns="http://www.w3.org/2000/svg">
<path d="M13.4304 1.04087C9.623 1.36651 6.61395 2.23708 4.45779 3.63931C2.16518 5.12793 0.752763 7.87922 0.227372 11.84C-0.0592047 14.0065 -0.0796744 18.1401 0.193256 20.1138C0.882405 25.211 3.15455 28.3212 7.16663 29.6636L7.73296 29.8496V31.7835C7.73296 33.3187 7.75343 33.7839 7.83531 34.0563C8.01954 34.6611 8.44258 35 9.00891 35C9.60936 35 10.2234 34.4484 12.1885 32.1756L13.2803 30.9196L15.914 30.9129C18.7184 30.9063 19.428 30.8598 21.4818 30.5142C22.5804 30.3281 24.641 29.7965 25.4393 29.4841C28.4211 28.3344 30.4476 25.9819 31.2937 22.6724C31.9078 20.2799 32.1739 15.9071 31.8805 12.9033C31.4984 8.98904 30.393 6.19123 28.5166 4.41685C26.7562 2.7488 23.6926 1.65227 19.2984 1.13391C18.3227 1.01429 14.4402 0.954479 13.4304 1.04087ZM19.1278 3.53298C22.9829 3.99817 25.7805 5.00831 27.036 6.40389C28.2846 7.77289 29.0488 9.80645 29.4105 12.7372C29.5537 13.9201 29.5742 17.2628 29.4446 18.7182C29.2194 21.1838 28.9124 22.4331 28.1686 23.8221C27.384 25.2907 26.0807 26.467 24.5387 27.0917C23.8973 27.3509 22.014 27.836 20.8336 28.0487C19.1346 28.3544 18.0634 28.4408 15.8868 28.4607L13.8398 28.4806L13.1302 29.3313C12.0384 30.6405 9.8277 33.199 9.49336 33.5579C9.28184 33.7706 9.13173 33.8702 9.01573 33.8702C8.6541 33.8702 8.6541 33.8902 8.6541 30.6338V27.6167L8.2447 27.4838C7.0711 27.0984 5.99303 26.4604 5.16741 25.6629C3.755 24.2939 2.97032 22.5793 2.56775 19.9477C2.39035 18.7913 2.39035 14.0796 2.56775 12.6774C2.81339 10.7834 3.14773 9.56721 3.77547 8.31783C4.60791 6.67636 5.59046 5.72604 7.28945 4.92856C8.87927 4.18425 11.0695 3.65925 13.5327 3.4333C14.5085 3.3469 18.1248 3.40671 19.1278 3.53298Z" fill="#151618"/>
<path d="M15.491 7.18807C15.4091 7.26782 15.375 7.3808 15.3887 7.54694C15.416 7.85264 15.607 7.95232 16.1665 7.95232C16.3917 7.95232 16.8693 7.99884 17.2173 8.05865C19.6532 8.46403 21.5842 9.82639 22.6964 11.9198C23.29 13.0429 23.5902 14.1793 23.6994 15.6945C23.7608 16.6249 23.8086 16.7245 24.177 16.7245C24.4568 16.7245 24.5864 16.5385 24.5864 16.1331C24.5864 15.6081 24.4568 14.5714 24.2998 13.8736C23.4401 9.95265 20.3628 7.32099 16.3985 7.10833C15.6957 7.0751 15.5934 7.08174 15.491 7.18807Z" fill="#151618"/>
<path d="M9.69124 8.11846C8.94068 8.30454 7.69202 9.39442 7.29627 10.2052C7.12569 10.564 7.08475 10.7235 7.08475 11.109C7.08475 11.5476 7.11887 11.6539 7.6852 12.9365C8.77692 15.4021 9.86864 17.2628 11.1173 18.7847C12.0453 19.9144 13.5464 21.2635 14.8974 22.1872C16.2143 23.0844 18.4182 24.2806 19.7419 24.8056C20.7313 25.1977 21.1884 25.2243 21.8093 24.9385C22.6964 24.5199 23.8495 23.1641 23.9996 22.36C24.0815 21.9347 23.945 21.6357 23.4742 21.1904C22.751 20.5059 21.5432 19.6353 20.6085 19.117C20.3014 18.9508 20.124 18.8977 19.8579 18.8977C19.2916 18.891 19.0596 19.0306 18.5205 19.7018C18.0293 20.3132 17.9747 20.3531 17.5585 20.4527C17.1422 20.5458 15.9959 20.1005 15.0066 19.4559C13.7306 18.6318 12.5024 17.0302 11.861 15.3622C11.554 14.578 11.6632 14.2723 12.4751 13.6077C13.1438 13.0562 13.2939 12.777 13.2462 12.159C13.2257 11.8334 13.1575 11.6672 12.8231 11.109C12.3318 10.2916 11.9566 9.77322 11.2674 8.93587C10.5714 8.09188 10.319 7.96561 9.69124 8.11846Z" fill="#151618"/>
<path d="M16.2825 9.38113C16.0983 9.50739 16.0642 9.87955 16.2211 10.0324C16.2757 10.0789 16.5827 10.1587 16.9034 10.2052C19.6668 10.5773 21.2703 12.2653 21.4818 15.0299C21.5296 15.6745 21.6251 15.8606 21.9049 15.8606C21.9867 15.8606 22.1232 15.8008 22.1983 15.7277C22.3689 15.5616 22.3825 14.9502 22.2324 14.1128C21.8162 11.7736 20.2195 10.0856 17.8928 9.52069C16.9648 9.29473 16.4667 9.25486 16.2825 9.38113Z" fill="#151618"/>
<path d="M16.8761 11.7403C16.8011 11.8134 16.7397 11.9397 16.7397 12.0261C16.7397 12.3052 16.8898 12.4115 17.4288 12.5046C18.5683 12.6973 19.1142 13.2622 19.2574 14.3986C19.3257 14.9169 19.4621 15.1296 19.7214 15.1296C19.9398 15.1296 20.1513 14.9036 20.1513 14.6644C20.1513 14.2989 19.9398 13.4482 19.7624 13.116C19.5372 12.6707 19.0323 12.159 18.6365 11.9663C18.2749 11.7868 17.5789 11.6074 17.2378 11.6074C17.1013 11.6074 16.958 11.6606 16.8761 11.7403Z" fill="#151618"/>
</svg>
