<svg viewBox="0 0 32 32" fill="none" xmlns="http://www.w3.org/2000/svg">
<path d="M30.3819 8.286C30.0362 7.00107 29.0229 5.98818 27.7378 5.64219C25.3902 5 15.9997 5 15.9997 5C15.9997 5 6.60945 5 4.26185 5.61784C3.00153 5.96347 1.9635 7.00126 1.6178 8.286C1 10.6329 1 15.5 1 15.5C1 15.5 1 20.3917 1.6178 22.714C1.96387 23.9987 2.97681 25.0116 4.26203 25.3576C6.63417 26 16 26 16 26C16 26 25.3902 26 27.7378 25.3822C29.0231 25.0364 30.0362 24.0235 30.3823 22.7387C30.9999 20.3917 30.9999 15.5247 30.9999 15.5247C30.9999 15.5247 31.0246 10.6329 30.3819 8.286ZM13.0099 19.9964V11.0036L20.8186 15.5L13.0099 19.9964Z" fill="#151618"/>
</svg>
