<svg xmlns="http://www.w3.org/2000/svg" width="428" height="492" fill="none"><g filter="url(#a)"><path fill="#fff" d="M214 211.143c55.229 0 100-44.772 100-100 0-27.016-10.713-51.53-28.122-69.524C344.994 34.315 398 80.459 398 140.886v280.256c0 16.569-13.431 30-30 30H60c-16.569 0-30-13.431-30-30V171.321c0-48.353 34.596-89.78 82.174-98.399l10.175-1.843C116.979 83.345 114 96.896 114 111.143c0 55.228 44.772 100 100 100Z"/><path stroke="#2B2B2B" stroke-opacity=".05" d="M214 211.643c55.505 0 100.5-44.996 100.5-100.5 0-26.789-10.482-51.13-27.567-69.146C345.351 35.366 397.5 81.1 397.5 140.886v280.256c0 16.293-13.208 29.5-29.5 29.5H60c-16.292 0-29.5-13.207-29.5-29.5V171.321c0-48.111 34.423-89.33 81.763-97.907l9.256-1.676c-5.162 12.1-8.019 25.42-8.019 39.405 0 55.504 44.995 100.5 100.5 100.5Z"/></g><g filter="url(#b)"><circle cx="214" cy="110.857" r="90" fill="#F95555"/></g><defs><filter id="a" width="428" height="470.285" x="0" y="20.857" color-interpolation-filters="sRGB" filterUnits="userSpaceOnUse"><feFlood flood-opacity="0" result="BackgroundImageFix"/><feColorMatrix in="SourceAlpha" result="hardAlpha" values="0 0 0 0 0 0 0 0 0 0 0 0 0 0 0 0 0 0 127 0"/><feOffset dy="10"/><feGaussianBlur stdDeviation="15"/><feComposite in2="hardAlpha" operator="out"/><feColorMatrix values="0 0 0 0 0.168627 0 0 0 0 0.168627 0 0 0 0 0.168627 0 0 0 0.2 0"/><feBlend in2="BackgroundImageFix" result="effect1_dropShadow_2_1026"/><feBlend in="SourceGraphic" in2="effect1_dropShadow_2_1026" result="shape"/></filter><filter id="b" width="240" height="240" x="94" y=".857" color-interpolation-filters="sRGB" filterUnits="userSpaceOnUse"><feFlood flood-opacity="0" result="BackgroundImageFix"/><feColorMatrix in="SourceAlpha" result="hardAlpha" values="0 0 0 0 0 0 0 0 0 0 0 0 0 0 0 0 0 0 127 0"/><feOffset dy="10"/><feGaussianBlur stdDeviation="15"/><feComposite in2="hardAlpha" operator="out"/><feColorMatrix values="0 0 0 0 0.168627 0 0 0 0 0.168627 0 0 0 0 0.168627 0 0 0 0.2 0"/><feBlend in2="BackgroundImageFix" result="effect1_dropShadow_2_1026"/><feBlend in="SourceGraphic" in2="effect1_dropShadow_2_1026" result="shape"/></filter></defs></svg>