<svg xmlns="http://www.w3.org/2000/svg" width="27" height="34" fill="none"><path fill="#fff" d="M9.727 19.273a1.5 1.5 0 1 0-2.121 2.121l2.121-2.121ZM12 23.667l-1.06 1.06a1.5 1.5 0 0 0 2.12 0L12 23.667Zm7.727-5.606a1.5 1.5 0 0 0-2.121-2.122l2.121 2.122Zm4.106-9.394v20h3v-20h-3ZM22 30.5H5.333v3H22v-3ZM3.5 28.667v-20h-3v20h3ZM5.333 6.833h3.334v-3H5.333v3Zm13.334 0H22v-3h-3.333v3ZM5.333 30.5A1.833 1.833 0 0 1 3.5 28.667h-3A4.833 4.833 0 0 0 5.333 33.5v-3Zm18.5-1.833c0 1.012-.82 1.833-1.833 1.833v3a4.833 4.833 0 0 0 4.833-4.833h-3Zm3-20A4.833 4.833 0 0 0 22 3.833v3c1.012 0 1.833.821 1.833 1.834h3Zm-23.333 0c0-1.013.82-1.834 1.833-1.834v-3A4.833 4.833 0 0 0 .5 8.667h3Zm4.106 12.727 3.333 3.333 2.122-2.121-3.334-3.333-2.121 2.121Zm5.455 3.333 6.666-6.666-2.121-2.122-6.667 6.667 2.122 2.121ZM12 3.5h3.333v-3H12v3Zm3.333 3.667H12v3h3.333v-3Zm-3.333 0a1.833 1.833 0 0 1-1.833-1.834h-3A4.833 4.833 0 0 0 12 10.167v-3Zm5.167-1.834c0 1.013-.821 1.834-1.834 1.834v3a4.833 4.833 0 0 0 4.834-4.834h-3ZM15.333 3.5c1.013 0 1.834.82 1.834 1.833h3A4.833 4.833 0 0 0 15.333.5v3ZM12 .5a4.833 4.833 0 0 0-4.833 4.833h3c0-1.012.82-1.833 1.833-1.833v-3Z"/></svg>