<svg xmlns="http://www.w3.org/2000/svg" width="56" height="56" fill="none"><path fill="#F95555" d="M23.402 4.449a6.614 6.614 0 0 1 9.196 0 6.614 6.614 0 0 0 5.525 1.795 6.614 6.614 0 0 1 7.44 5.405 6.614 6.614 0 0 0 3.415 4.7 6.614 6.614 0 0 1 2.842 8.747 6.614 6.614 0 0 0 0 5.808 6.614 6.614 0 0 1-2.842 8.747 6.614 6.614 0 0 0-3.415 4.7 6.614 6.614 0 0 1-7.44 5.405 6.613 6.613 0 0 0-5.525 1.795 6.614 6.614 0 0 1-9.196 0 6.613 6.613 0 0 0-5.525-1.795 6.614 6.614 0 0 1-7.44-5.405 6.614 6.614 0 0 0-3.415-4.7 6.614 6.614 0 0 1-2.842-8.747 6.614 6.614 0 0 0 0-5.808 6.614 6.614 0 0 1 2.842-8.747 6.614 6.614 0 0 0 3.415-4.7 6.614 6.614 0 0 1 7.44-5.405 6.614 6.614 0 0 0 5.525-1.795Z"/><path stroke="#fff" stroke-linecap="round" stroke-linejoin="round" stroke-width="2" d="M35 21 21 35m4-12.5a2.5 2.5 0 1 1-5 0 2.5 2.5 0 0 1 5 0Zm11 11a2.5 2.5 0 1 1-5 0 2.5 2.5 0 0 1 5 0Z"/></svg>